<svg width="39" height="39" viewBox="0 0 39 39" fill="none" xmlns="http://www.w3.org/2000/svg">
<g filter="url(#filter0_d_9_53)">
<path d="M11 19.5H12.8889M12.8889 26.1111L14.7778 24.2222M19.5 26.1111V28M24.2222 24.2222L26.1111 26.1111M12.8889 12.8889L14.7778 14.7778M26.1111 19.5H28M24.2221 14.7778L26.111 12.8889M19.5 11V12.8889M22.3333 19.5C22.3333 21.0648 21.0648 22.3333 19.5 22.3333C17.9351 22.3333 16.6667 21.0648 16.6667 19.5C16.6667 17.9351 17.9351 16.6667 19.5 16.6667C21.0648 16.6667 22.3333 17.9351 22.3333 19.5Z" stroke="#FFF176" stroke-width="2" stroke-linecap="round" stroke-linejoin="round"/>
</g>
<defs>
<filter id="filter0_d_9_53" x="0" y="0" width="39" height="39" filterUnits="userSpaceOnUse" color-interpolation-filters="sRGB">
<feFlood flood-opacity="0" result="BackgroundImageFix"/>
<feColorMatrix in="SourceAlpha" type="matrix" values="0 0 0 0 0 0 0 0 0 0 0 0 0 0 0 0 0 0 127 0" result="hardAlpha"/>
<feOffset/>
<feGaussianBlur stdDeviation="5"/>
<feColorMatrix type="matrix" values="0 0 0 0 1 0 0 0 0 0.843137 0 0 0 0 0 0 0 0 0.01 0"/>
<feBlend mode="normal" in2="BackgroundImageFix" result="effect1_dropShadow_9_53"/>
<feBlend mode="normal" in="SourceGraphic" in2="effect1_dropShadow_9_53" result="shape"/>
</filter>
</defs>
</svg>
