<svg width="17" height="18" viewBox="0 0 17 18" fill="none" xmlns="http://www.w3.org/2000/svg">
<path d="M10.3232 0.83292L9.76269 2.01987C9.74895 2.04889 9.72678 2.07244 9.69937 2.08695L8.57836 2.68042C8.47388 2.73571 8.47388 2.89348 8.57836 2.94875L9.69937 3.54223C9.72678 3.55675 9.74895 3.58028 9.76269 3.60931L10.3232 4.79626C10.3754 4.90682 10.5244 4.90682 10.5766 4.79626L11.1371 3.60931C11.1508 3.58028 11.1731 3.55674 11.2005 3.54223L12.3215 2.94875C12.4259 2.89348 12.4259 2.73571 12.3215 2.68042L11.2005 2.08695C11.1731 2.07244 11.1508 2.04889 11.1371 2.01987L10.5766 0.83292C10.5244 0.72236 10.3754 0.722361 10.3232 0.83292Z" fill="#F8E8C1"/>
<path d="M13.6297 3.80417L13.0782 5.55611C13.0641 5.6009 13.0308 5.63605 12.9886 5.65097L11.334 6.23495C11.2048 6.28054 11.2048 6.47398 11.334 6.51956L12.9886 7.10354C13.0308 7.11847 13.0641 7.15362 13.0782 7.19841L13.6297 8.95034C13.6727 9.08707 13.8554 9.08707 13.8985 8.95034L14.45 7.19841C14.4642 7.15362 14.4973 7.11847 14.5396 7.10354L16.1943 6.51956C16.3234 6.47398 16.3234 6.28054 16.1943 6.23495L14.5396 5.65097C14.4973 5.63605 14.4642 5.6009 14.45 5.55611L13.8985 3.80417C13.8554 3.66741 13.6727 3.66741 13.6297 3.80417Z" fill="#F8E8C1"/>
<path fill-rule="evenodd" clip-rule="evenodd" d="M7.66365 10.3312C9.66632 12.4516 12.795 12.6352 14.9287 10.8607C14.9552 10.8388 14.9814 10.8165 15.0076 10.7939C15.1063 10.7086 15.2028 10.6189 15.2968 10.525C15.335 10.4869 15.3727 10.4481 15.4101 10.4086C15.7728 10.0244 16.517 10.2514 16.4075 10.782C16.3696 10.9654 16.3259 11.1468 16.2764 11.3259C16.2471 11.4321 16.2158 11.5375 16.1825 11.6422C16.1734 11.6707 16.1641 11.6992 16.1548 11.7277C15.0942 14.9437 12.1836 17.3332 8.79167 17.3332C4.48845 17.3332 1 13.6396 1 9.08323C1 5.43287 3.33103 2.31994 6.43213 1.2399L6.47009 1.22679C6.5381 1.20351 6.60648 1.18122 6.6752 1.15991C6.85763 1.10335 7.04251 1.05379 7.22955 1.01151C7.75601 0.89251 7.97128 1.72606 7.59055 2.12912C7.55279 2.16911 7.51575 2.20955 7.47934 2.25042C7.4073 2.33133 7.33793 2.41396 7.27123 2.49818C7.25661 2.51664 7.24212 2.53518 7.22775 2.5538C5.48351 4.81434 5.63574 8.1839 7.66365 10.3312ZM6.66193 11.3918C8.59673 13.4404 11.393 14.0554 13.8118 13.185C12.6366 14.7848 10.8104 15.8332 8.79167 15.8332C5.27085 15.8332 2.41667 12.8112 2.41667 9.08323C2.41667 6.90173 3.44838 4.93671 5.00958 3.69685C4.12778 6.28604 4.69566 9.30988 6.66193 11.3918Z" fill="#6E5773"/>
</svg>
